#N canvas 25 387 1016 485 10;
#X obj 127 67 route Lyre;
#X obj 127 96 route X Y;
#X obj 8 25 PdClient \$0 son;
#X obj 127 40 r \$0-fromserver;
#X obj 78 152 s \$0-angle;
#X obj 46 285 hp4_cheb~ 20;
#X obj 46 310 lp4_cheb~ 20000;
#X obj 47 384 s~ \$0-audio;
#X obj 155 304 r \$0-vol;
#X obj 341 160 pow 2;
#X obj 341 180 s \$0-vol;
#X floatatom 223 100 5 0 0 0 - - -, f 5;
#X obj 225 130 - 200;
#X obj 153 156 * -1;
#X obj 153 223 mtof;
#X obj 153 128 - 200;
#X obj 225 233 mtof;
#X obj 225 204 clip 0 134;
#X obj 225 180 + 134;
#X obj 153 200 clip 0 134;
#X obj 344 130 hsl 128 15 0 1 0 0 empty empty master -40 8 0 10 -258113
-1 -1 5200 1;
#X obj 342 81 bng 15 250 50 0 /kof/audio/media/mono/openpanel empty
mono -30 7 0 10 -262144 -1 -1;
#X obj 366 81 hsl 60 15 0 1 0 0 /kof/audio/media/mono/vol /kof/audio/media/mono/vol
vol 65 8 0 10 -262144 -1 -1 4720 1;
#X obj 342 104 bng 15 250 50 0 /kof/audio/media/quad/openpanel empty
quad -30 7 0 10 -262144 -1 -1;
#X obj 366 104 hsl 60 15 0 1 0 0 /kof/audio/media/quad/vol /kof/audio/media/quad/vol
vol 65 8 0 10 -262144 -1 -1 0 1;
#X obj 534 148 r /kof/audio/media/mono/openpanel;
#X obj 534 170 openpanel;
#X obj 534 191 symbol;
#X obj 509 197 bng 15 250 50 0 empty empty empty 17 7 0 10 -262144
-1 -1;
#X obj 534 211 s /kof/audio/media/mono;
#X obj 533 264 openpanel;
#X obj 533 285 symbol;
#X obj 533 242 r /kof/audio/media/quad/openpanel;
#X obj 533 305 s /kof/audio/media/quad;
#X obj 4 183 r /kof/audio/media/mono;
#X obj 46 259 readsf~ 1;
#X obj 383 354 readsf~ 4;
#X obj 371 436 dac~ 1 2 3 4;
#X obj 155 376 *;
#X obj 211 303 r /kof/audio/media/mono/vol;
#X obj 211 323 pow 2;
#X obj 211 345 t b f;
#X obj 531 335 r \$0-vol;
#X obj 531 407 *;
#X obj 587 354 pow 2;
#X obj 587 376 t b f;
#X obj 371 393 *~;
#X obj 46 355 mull~ 0 100;
#X msg 531 430 \$1 100;
#X obj 531 455 line~;
#X obj 396 393 *~;
#X obj 422 393 *~;
#X obj 447 393 *~;
#X obj 587 334 r /kof/audio/media/quad/vol;
#X obj 383 267 r /kof/audio/media/quad;
#X obj 4 211 symbol;
#X obj 383 302 symbol;
#X obj 7 430 print;
#X msg 4 239 open \$1 \, 1;
#X msg 383 333 open \$1 \, 1;
#X obj 258 419 ac;
#X floatatom 44 98 5 0 0 0 - - -, f 5;
#X floatatom 83 121 5 0 0 0 - - -, f 5;
#X floatatom 244 261 5 0 0 0 - - -, f 5;
#X floatatom 148 256 5 0 0 0 - - -, f 5;
#X obj 153 178 * 2;
#X obj 83 409 HP \$0 40 1;
#X floatatom 236 66 5 0 0 0 - - -, f 5;
#X obj 225 157 * -1.5;
#X obj 81 433 HP \$0 130 4;
#X obj 158 434 HP \$0 220 3;
#X obj 153 409 HP \$0 310 2;
#X obj 1 324 bng 15 250 50 0 empty empty empty 17 7 0 10 -262144 -1
-1;
#X obj 531 54 ds_reg 0 /kof/audio/media/mono/vol0;
#X obj 531 74 ds_reg 0 /kof/audio/media/quad/vol0;
#X obj 532 102 ds_reg 0 /kof/audio/media/mono0;
#X obj 532 122 ds_reg 0 /kof/audio/media/quad0;
#X obj 803 57 r /ds/0/scene/current;
#X obj 814 221 symbol;
#X msg 812 242 media/wav/\$1.wav;
#X obj 812 265 s /kof/audio/media/mono;
#X msg 938 192 0.8;
#X obj 970 266 s /kof/audio/media/mono/vol;
#X msg 750 150 sonPaysage;
#X msg 916 151 sonUfo;
#X msg 819 152 sonDollHouse;
#X obj 804 87 sel 1 25 35 71;
#X msg 936 122 0;
#X connect 0 0 1 0;
#X connect 1 0 61 0;
#X connect 1 0 4 0;
#X connect 1 1 12 0;
#X connect 1 1 15 0;
#X connect 1 1 67 0;
#X connect 3 0 0 0;
#X connect 5 0 6 0;
#X connect 6 0 47 0;
#X connect 8 0 38 0;
#X connect 9 0 10 0;
#X connect 11 0 12 0;
#X connect 11 0 15 0;
#X connect 12 0 68 0;
#X connect 13 0 65 0;
#X connect 14 0 5 1;
#X connect 14 0 64 0;
#X connect 15 0 13 0;
#X connect 16 0 6 1;
#X connect 16 0 63 0;
#X connect 17 0 16 0;
#X connect 18 0 17 0;
#X connect 19 0 14 0;
#X connect 20 0 9 0;
#X connect 25 0 26 0;
#X connect 26 0 27 0;
#X connect 27 0 29 0;
#X connect 28 0 27 0;
#X connect 30 0 31 0;
#X connect 31 0 33 0;
#X connect 32 0 30 0;
#X connect 34 0 55 0;
#X connect 35 0 5 0;
#X connect 36 0 46 0;
#X connect 36 1 50 0;
#X connect 36 2 51 0;
#X connect 36 3 52 0;
#X connect 38 0 47 1;
#X connect 39 0 40 0;
#X connect 40 0 41 0;
#X connect 41 0 38 0;
#X connect 41 1 38 1;
#X connect 42 0 43 0;
#X connect 43 0 48 0;
#X connect 44 0 45 0;
#X connect 45 0 43 0;
#X connect 45 1 43 1;
#X connect 46 0 37 0;
#X connect 47 0 7 0;
#X connect 48 0 49 0;
#X connect 49 0 46 1;
#X connect 49 0 50 1;
#X connect 49 0 51 1;
#X connect 49 0 52 1;
#X connect 50 0 37 1;
#X connect 51 0 37 2;
#X connect 52 0 37 3;
#X connect 53 0 44 0;
#X connect 54 0 56 0;
#X connect 55 0 58 0;
#X connect 56 0 59 0;
#X connect 58 0 35 0;
#X connect 58 0 72 0;
#X connect 59 0 36 0;
#X connect 62 0 4 0;
#X connect 65 0 19 0;
#X connect 68 0 18 0;
#X connect 77 0 86 0;
#X connect 78 0 79 0;
#X connect 79 0 80 0;
#X connect 81 0 82 0;
#X connect 83 0 78 0;
#X connect 84 0 78 0;
#X connect 85 0 78 0;
#X connect 86 0 83 0;
#X connect 86 0 81 0;
#X connect 86 1 85 0;
#X connect 86 2 84 0;
#X connect 86 3 87 0;
#X connect 87 0 82 0;
#X coords 0 -1 1 1 200 100 1 300 50;
