#N canvas 12 75 450 426 10;
#X obj 126 39 r~ \$1-audio;
#X obj 157 66 r \$1-angle;
#X obj 157 87 - \$2;
#X obj 157 174 abs;
#X obj 157 229 t b f;
#X obj 157 276 /;
#X obj 157 129 fmod 360;
#X obj 157 108 + 180;
#X obj 157 151 - 180;
#X obj 126 325 mull~ 0 200;
#X obj 127 348 dac~ \$3;
#X floatatom 241 316 5 0 0 0 - - -, f 5;
#X obj 157 298 pow 2;
#X obj 157 199 + 90;
#X obj 157 253 90;
#X connect 0 0 9 0;
#X connect 1 0 2 0;
#X connect 2 0 7 0;
#X connect 3 0 13 0;
#X connect 4 0 14 0;
#X connect 4 1 5 1;
#X connect 5 0 12 0;
#X connect 6 0 8 0;
#X connect 7 0 6 0;
#X connect 8 0 3 0;
#X connect 9 0 10 0;
#X connect 12 0 9 1;
#X connect 13 0 4 0;
#X connect 14 0 5 0;
