#N canvas 579 174 700 702 10;
#X declare -lib pof;
#X declare -path ./kollabs;
#X declare -path ./kof;
#X obj 24 28 declare -lib pof;
#X obj 24 48 declare -path ./kollabs;
#X obj 19 97 ds_logic 0;
#X obj 19 117 ds_gui 0;
#X text 361 251 TODO;
#X obj 20 375 kof_media QUAD1;
#X obj 391 24 loadbang;
#X msg 391 46 \; pd dsp 1;
#X obj 19 245 ds_transition 0;
#X obj 20 263 ds_transition_gui 0;
#X obj 457 22 loadbang;
#X obj 24 68 declare -path ./kof;
#X msg 457 46 \; /ds/0/loadfile ../presets/preset-test;
#X obj 193 23 PdServeur \$0 424242;
#X obj 288 615 raspi-slave \$0;
#X obj 20 435 kof_media QUAD2;
#X obj 19 495 kof_media QUAD3;
#X obj 19 555 kof_media QUADPI;
#X obj 440 375 kof_sphere SPHERE;
#X obj 21 353 ds_scheduler 0;
#X obj 224 97 ds_scheduler_gui 0;
#X obj 582 104 #kof_win;
#X obj 226 375 kof_quadmask MASK1;
#X obj 227 435 kof_quadmask MASK2;
#X obj 227 495 kof_quadmask MASK3;
#X obj 227 555 kof_quadmask MASKPI;
#X obj 226 375 kof_quadmask MASK1;
#X obj 227 435 kof_quadmask MASK1;
#N canvas 83 320 427 300 LyreMachine 0;
#X obj 101 117 cnv 15 198 51 empty empty empty 20 12 0 14 -233017 -66577
0;
#X obj 107 23 ds_reg 0 /kof/Lyre/x;
#X obj 107 43 ds_reg 0 /kof/Lyre/y;
#X obj 126 122 hsl 128 15 0 1 0 0 /kof/Lyre/x /kof/Lyre/x x -15 8 0
10 -262144 -1 -1 0 1;
#X obj 125 148 hsl 128 15 0 1 0 0 /kof/Lyre/y /kof/Lyre/y y -15 8 0
10 -262144 -1 -1 6600 1;
#X obj 101 202 r /kof/Lyre/x;
#X obj 224 203 r /kof/Lyre/y;
#X obj 101 250 s \$0-toclients;
#X obj 224 251 s \$0-toclients;
#X msg 101 227 _all_ Lyre setX \$1;
#X msg 224 228 _all_ Lyre setY \$1;
#X connect 5 0 9 0;
#X connect 6 0 10 0;
#X connect 9 0 7 0;
#X connect 10 0 8 0;
#X coords 0 -1 1 1 200 70 1 100 100;
#X restore 441 538 pd LyreMachine;
#X obj 20 615 pd~slave 1;
#X obj 197 615 pd~slave 3;
#X obj 109 615 pd~slave 2;
#N canvas 69 162 450 300 loop 0;
#X obj 101 37 cnv 15 98 31 empty empty empty 20 12 0 14 -204786 -66577
0;
#X obj 235 81 r /ds/0/timer/elapsed/raw/ms;
#X obj 84 124 r /ds/0/scene/current;
#X msg 84 234 0;
#X obj 84 186 spigot;
#X obj 109 50 tgl 15 0 empty empty loop -5 -8 0 10 -262144 -1 -1 1
1;
#X obj 84 156 sel 4;
#X obj 84 256 s /ds/0/scene;
#X obj 84 211 del 1000;
#X obj 135 50 nbx 5 14 1 99 0 1 empty empty atScene 5 -8 0 10 -262144
-1 -1 4 256;
#X connect 2 0 6 0;
#X connect 3 0 7 0;
#X connect 4 0 8 0;
#X connect 5 0 4 1;
#X connect 6 0 4 0;
#X connect 8 0 3 0;
#X connect 9 0 6 1;
#X coords 0 -1 1 1 100 50 1 100 20;
#X restore 540 302 pd loop;
#N canvas 1 68 688 268 NETWORK 1;
#X obj 50 32 r /osc/0/out;
#X obj 50 226 s \$0-toclients;
#X obj 50 206 list prepend _all_;
#X obj 79 55 r /ds/0/transition/busy;
#X obj 79 76 == 0;
#X obj 146 89 r /ds/0/scene/current;
#X obj 59 78 tgl 15 0 empty empty empty 17 7 0 10 -262144 -1 -1 1 1
;
#X msg 173 133 /loadpreset \$1;
#X obj 146 111 t b f;
#X msg 146 131 0;
#X msg 298 149 /reloadfile;
#X msg 168 22 1;
#X obj 50 160 spigot 1;
#X obj 298 85 r /ds/0/resave;
#X obj 298 106 b;
#X obj 298 127 del 500;
#X text 346 127 laisser le temps de transmettre le fichier par ssh
;
#X connect 0 0 12 0;
#X connect 2 0 1 0;
#X connect 3 0 4 0;
#X connect 4 0 6 0;
#X connect 4 0 12 1;
#X connect 5 0 8 0;
#X connect 7 0 2 0;
#X connect 8 0 9 0;
#X connect 8 1 7 0;
#X connect 9 0 12 1;
#X connect 10 0 2 0;
#X connect 11 0 12 1;
#X connect 12 0 2 0;
#X connect 13 0 14 0;
#X connect 14 0 15 0;
#X connect 15 0 10 0;
#X restore 318 25 pd NETWORK;
#X obj 194 59 #PdClient \$0 master;
#X obj 605 179 pofwin;
#X msg 605 158 0;
#X connect 6 0 7 0;
#X connect 10 0 12 0;
#X connect 36 0 35 0;
