#N canvas 1002 173 897 847 10;
#X declare -lib pof;
#X declare -path ./kollabs;
#X declare -path ./kof;
#X obj 58 49 declare -lib pof;
#X obj 58 69 declare -path ./kollabs;
#X obj 72 114 ds_logic 0;
#X obj 72 134 ds_gui 0;
#X text 395 272 TODO;
#X obj 54 396 kof_media QUAD1;
#X obj 568 94 loadbang;
#X msg 568 116 \; pd dsp 1;
#X obj 54 263 pofhead;
#X obj 54 301 t a a a a a;
#X obj 55 336 poftranslate 200 200;
#X obj 55 358 pofscale 1 1;
#X obj 4 729 pd~slave 1;
#X obj 506 300 s /ds/0/scene;
#X msg 506 274 3;
#X msg 536 273 4;
#X obj 232 117 ds_transition 0;
#X obj 233 135 ds_transition_gui 0;
#X obj 432 210 loadbang;
#X msg 564 269;
#X obj 58 89 declare -path ./kof;
#X msg 432 234 \; /ds/0/loadfile ../presets/preset-test;
#X obj 426 116 PdServeur \$0 424242;
#X obj 424 -12 r /osc/0/out;
#X obj 424 92 s \$0-toclients;
#X obj 424 72 list prepend _all_;
#X obj 188 667 raspi-slave \$0;
#X obj 74 456 kof_media QUAD2;
#X obj 94 516 kof_media QUAD3;
#X obj 114 576 kof_media QUADPI;
#X obj 354 319 kof_sphere SPHERE;
#X obj 569 442 ds_scheduler 0;
#X obj 343 487 ds_scheduler_gui 0;
#X obj 111 730 pd~slave 2;
#X obj 216 728 pd~slave 3;
#X obj 427 152 PdClient \$0 master;
#X obj 676 414 tgl 15 0 empty empty empty 17 7 0 10 -262144 -1 -1 0
1;
#X obj 609 335 r /osc/0/out;
#X obj 463 10 r /ds/0/transition/busy;
#X obj 424 52 spigot;
#X obj 463 31 == 0;
#X obj 727 169 #kof_win;
#X obj 633 10 r /ds/0/scene/current;
#X obj 479 53 tgl 15 0 empty empty empty 17 7 0 10 -262144 -1 -1 1
1;
#X msg 633 52 /loadpreset \$1;
#X obj 633 32 t b f;
#X msg 524 38 0;
#X connect 6 0 7 0;
#X connect 9 0 10 0;
#X connect 9 1 27 0;
#X connect 9 2 28 0;
#X connect 9 4 30 0;
#X connect 10 0 11 0;
#X connect 11 0 5 0;
#X connect 14 0 13 0;
#X connect 15 0 13 0;
#X connect 18 0 21 0;
#X connect 23 0 39 0;
#X connect 25 0 24 0;
#X connect 38 0 40 0;
#X connect 39 0 25 0;
#X connect 40 0 39 1;
#X connect 40 0 43 0;
#X connect 42 0 45 0;
#X connect 44 0 25 0;
#X connect 45 0 46 0;
#X connect 45 1 44 0;
#X connect 46 0 39 1;
