#N canvas 331 75 963 764 10;
#X declare -lib pof;
#X declare -path ./kollabs;
#X declare -path ./kof;
#X obj 19 19 declare -lib pof;
#X obj 19 39 declare -path ./kollabs;
#X obj 19 97 ds_logic 0;
#X obj 19 117 ds_gui 0;
#X obj 90 77 ds_transition 0;
#X obj 19 245 ds_transition_gui 0;
#X obj 457 22 loadbang;
#X obj 19 59 declare -path ./kof;
#X msg 457 46 \; /ds/0/loadfile ../presets/preset-test;
#N canvas 8 75 688 268 NETWORK 0;
#X obj 128 30 r \$0-fromserver;
#X obj 128 116 s /osc/0/in;
#X obj 128 83 route /monitor;
#X obj 262 82 route /loadpreset /reloadfile;
#X obj 262 148 s /ds/0/scene;
#X obj 358 146 s /ds/0/reload;
#X obj 358 124 b;
#X obj 403 205 bng 15 250 50 0 empty empty empty 17 7 0 10 -262144
-1 -1;
#X obj 188 183 print;
#X connect 0 0 2 0;
#X connect 0 0 3 0;
#X connect 2 0 1 0;
#X connect 2 1 1 0;
#X connect 3 0 4 0;
#X connect 3 1 6 0;
#X connect 6 0 5 0;
#X connect 6 0 7 0;
#X restore 318 25 pd NETWORK;
#X obj 177 32 PdClient \$0 monitor;
#X obj 527 96 kof_win 0 monitor;
#X obj 663 265 ds_logic monitor;
#X obj 663 288 ds_gui monitor;
#X obj 663 426 loadbang;
#X obj 51 335 pofhead;
#X obj 50 404 t a a a a;
#X obj 50 470 poftranslate -200;
#X obj 68 360 poftranslate;
#X obj 56 513 monitor_slave 1;
#X obj 164 468 poftranslate 0;
#X obj 260 470 poftranslate 200;
#X floatatom 161 348 5 0 0 0 - - -, f 5;
#X obj 68 383 pofscale 1 1 1;
#X floatatom 198 415 5 0 0 0 - - -, f 5;
#X obj 283 346 pofrect 800 600;
#X obj 161 514 monitor_slave 2;
#X obj 261 516 monitor_slave 3;
#X obj 365 517 monitor_slave PI;
#X msg 663 449 \; /ds/monitor/loadfile ../presets/screenmonitor \;
/ds/monitor/scene 0;
#X connect 6 0 8 0;
#X connect 14 0 29 0;
#X connect 15 0 16 0;
#X connect 16 0 17 0;
#X connect 16 1 20 0;
#X connect 16 2 21 0;
#X connect 17 0 19 0;
#X connect 18 0 23 0;
#X connect 20 0 26 0;
#X connect 21 0 27 0;
#X connect 22 0 23 1;
#X connect 22 0 23 2;
#X connect 23 0 16 0;
#X connect 24 0 17 1;
