#N canvas 732 170 604 529 10;
#X obj 98 214 a2l;
#X obj 98 190 spigot;
#X obj 173 309 > 0;
#X floatatom 208 310 5 0 0 0 - - -, f 5;
#X obj 73 488 print clients_echo;
#X obj 98 260 route list;
#X obj 71 462 nroute echo 2;
#X obj 98 164 r \$1-toclients;
#X obj 98 341 s \$1-fromclients;
#X obj 101 114 cnv 15 100 15 empty \$0-crcv Connected:0 2 8 0 12 -261682
-66577 0;
#X msg 248 343 label Connected:\$1;
#X obj 248 367 s \$0-crcv;
#X obj 252 303 init 0;
#N canvas 515 193 332 178 DMX 0;
#X obj 63 119 list prepend DDMX;
#X obj 65 3 r \$1-fromclients;
#X obj 63 143 s \$1-toclients;
#X obj 218 118 print;
#X obj 65 25 nroute DMX 2;
#X obj 65 68 unwonk s s;
#X obj 65 45 a2l;
#X connect 0 0 2 0;
#X connect 1 0 4 0;
#X connect 4 0 6 0;
#X connect 5 2 0 0;
#X connect 6 0 5 0;
#X restore 229 103 pd DMX;
#X obj 121 434 s \$1-toclients;
#X text 151 363 redirection;
#X obj 64 384 unwonk s s;
#X obj 64 338 a2l;
#X obj 121 410 list trim;
#X obj 64 362 nroute TALK 2;
#X msg 232 189 _all_ disconnect;
#X text 98 78 PdServeur \$0 424242;
#X obj 98 288 netreceive \$2;
#X obj 98 236 list prepend send;
#X connect 0 0 23 0;
#X connect 1 0 0 0;
#X connect 2 0 1 1;
#X connect 3 0 10 0;
#X connect 5 0 22 0;
#X connect 6 0 4 0;
#X connect 7 0 1 0;
#X connect 10 0 11 0;
#X connect 12 0 10 0;
#X connect 16 2 18 0;
#X connect 17 0 19 0;
#X connect 18 0 14 0;
#X connect 19 0 16 0;
#X connect 20 0 1 0;
#X connect 22 0 8 0;
#X connect 22 0 17 0;
#X connect 22 1 3 0;
#X connect 22 1 2 0;
#X connect 23 0 5 0;
#X coords 0 -1 1 1 102 30 1 100 100;
