#N canvas 147 503 638 357 10;
#X obj 165 300 pd~ -ninsig 2 -noutsig 2 -fifo 20;
#X msg 194 236 pd~ stop;
#X obj 103 68 bng 15 250 50 0 empty empty start 17 7 0 10 -262144 -1
-1;
#X obj 179 108 t b b;
#X obj 211 130 delay 1000;
#X obj 211 150 f \$1;
#X msg 211 170 /init \$1;
#X obj 103 87 bng 15 250 50 0 empty empty save 17 7 0 10 -262144 -1
-1;
#X msg 100 213 /save bang;
#X msg 458 234 \; pd quit;
#X msg 177 189 pd~ start kof/slave_quad_dyn.pd;
#X connect 1 0 0 0;
#X connect 2 0 3 0;
#X connect 3 0 10 0;
#X connect 3 1 4 0;
#X connect 4 0 5 0;
#X connect 5 0 6 0;
#X connect 6 0 0 0;
#X connect 7 0 8 0;
#X connect 8 0 0 0;
#X connect 10 0 0 0;
#X coords 0 -1 1 1 100 80 1 100 50;
