#N canvas 152 389 988 461 10;
#X obj 165 300 pd~ -ninsig 2 -noutsig 2 -fifo 20;
#X msg 194 236 pd~ stop;
#X obj 103 68 bng 15 250 50 0 empty empty start 17 7 0 10 -262144 -1
-1;
#X obj 179 108 t b b;
#X obj 211 130 delay 1000;
#X obj 211 150 f \$1;
#X msg 211 170 /init \$1;
#X obj 103 87 bng 15 250 50 0 empty empty save 17 7 0 10 -262144 -1
-1;
#X msg 100 213 /save bang;
#X msg 472 255 \; pd quit;
#X msg 177 189 pd~ start kof/slave_quad_dyn.pd;
#X obj 261 22 s /kowin/pos/x;
#X floatatom 363 87 5 0 0 0 - - -, f 5;
#X obj 408 209 s /osc/0/out;
#X obj 408 134 pack f \$1;
#X obj 408 45 f \$1;
#X obj 408 67 - 1;
#X obj 408 89 * 1024;
#X obj 408 111 + 1440;
#X obj 561 254 f \$1;
#X obj 562 227 del 3000;
#X obj 562 204 b;
#X obj 408 23 bng 15 250 50 0 empty empty empty 17 7 0 10 -262144 -1
-1;
#X msg 559 281 /\$1 /kofwin/fullscreen 0 \, /\$1 /kofwin/position/x
50 \, /\$1 /kofwin/position/y 50;
#X obj 793 73 bng 15 250 50 0 empty empty empty 17 7 0 10 -262144 -1
-1;
#X obj 243 100 delay 3000;
#X msg 408 163 /\$2 /kofwin/fullscreen 1 \, /\$2 /kofwin/position/x
\$1 \, /\$2 /kofwin/position/y 0 \, /\$2 /kofwin/window/x 1024 \, /\$2
/kofwin/window/y 768;
#X connect 1 0 0 0;
#X connect 2 0 3 0;
#X connect 3 0 10 0;
#X connect 3 1 4 0;
#X connect 3 1 25 0;
#X connect 4 0 5 0;
#X connect 5 0 6 0;
#X connect 6 0 0 0;
#X connect 7 0 8 0;
#X connect 8 0 0 0;
#X connect 10 0 0 0;
#X connect 14 0 26 0;
#X connect 15 0 16 0;
#X connect 16 0 17 0;
#X connect 17 0 18 0;
#X connect 18 0 14 0;
#X connect 19 0 23 0;
#X connect 20 0 19 0;
#X connect 21 0 20 0;
#X connect 22 0 15 0;
#X connect 23 0 13 0;
#X connect 24 0 19 0;
#X connect 25 0 22 0;
#X connect 26 0 13 0;
#X coords 0 -1 1 1 100 80 1 100 50;
