#N canvas 142 513 638 357 10;
#X obj 165 300 pd~ -ninsig 2 -noutsig 2 -fifo 20;
#X msg 194 236 pd~ stop;
#X obj 266 220 r /osc/0/out;
#X obj 266 264 list trim;
#X obj 266 242 list prepend /osc/1/in;
#X obj 103 68 bng 15 250 50 0 empty empty start 17 7 0 10 -262144 -1
-1;
#X obj 179 108 t b b;
#X obj 211 130 delay 1000;
#X obj 211 150 f \$1;
#X msg 211 170 /init \$1;
#X obj 103 87 bng 15 250 50 0 empty empty save 17 7 0 10 -262144 -1
-1;
#X msg 100 213 /save bang;
#X msg 458 234 \; pd quit;
#X msg 177 189 pd~ start kof/slave_quad_dyn.pd;
#X obj 373 32 r /osc/0/out;
#X obj 373 59 list prepend send;
#X obj 373 84 list trim;
#X obj 373 147 tgl 15 0 empty empty empty 17 7 0 10 -262144 -1 -1 1
1;
#X obj 373 113 netsend -u;
#X obj 224 35 f \$1;
#X obj 220 11 bng 15 250 50 0 empty empty empty 17 7 0 10 -262144 -1
-1;
#X obj 219 58 + 9000;
#X msg 218 78 connect localhost \$1;
#X connect 1 0 0 0;
#X connect 2 0 4 0;
#X connect 4 0 3 0;
#X connect 5 0 6 0;
#X connect 5 0 19 0;
#X connect 6 0 13 0;
#X connect 6 1 7 0;
#X connect 7 0 8 0;
#X connect 8 0 9 0;
#X connect 9 0 0 0;
#X connect 10 0 11 0;
#X connect 11 0 0 0;
#X connect 13 0 0 0;
#X connect 14 0 15 0;
#X connect 15 0 16 0;
#X connect 16 0 18 0;
#X connect 18 0 17 0;
#X connect 19 0 21 0;
#X connect 20 0 19 0;
#X connect 21 0 22 0;
#X connect 22 0 18 0;
#X coords 0 -1 1 1 100 80 1 100 50;
