#N canvas -213 75 948 797 10;
#X obj 182 257 r RASPI-ip;
#X obj 113 301 list prepend;
#X obj 113 347 list trim;
#X msg 182 278 nohup ssh pi@\$1;
#X obj 113 324 list append &;
#X obj 207 79 symbol;
#X obj 207 128 s RASPI-ip;
#X msg 298 43 127.0.0.1;
#X symbolatom 207 103 15 0 0 0 - - -, f 15;
#X obj 207 17 loadbang;
#X msg 207 44 192.168.1.71;
#N canvas 91 154 879 503 win 0;
#X obj 147 233 s /osc/0/out;
#X obj 122 134 pack f \$1;
#X obj 122 45 f \$1;
#X obj 122 67 - 1;
#X obj 122 89 * 1024;
#X obj 122 111 + 1440;
#X obj 299 283 f \$1;
#X obj 300 256 del 3000;
#X obj 300 233 b;
#X obj 122 23 bng 15 250 50 0 empty empty empty 17 7 0 10 -262144 -1
-1;
#X msg 297 310 /\$1 /kofwin/fullscreen 0 \, /\$1 /kofwin/position/x
50 \, /\$1 /kofwin/position/y 50;
#X obj 392 114 bng 15 250 50 0 empty empty empty 17 7 0 10 -262144
-1 -1;
#X msg 194 139 symbol PI;
#X msg 533 168 symbol PI;
#X msg 533 190 /\$2 /kofwin/fullscreen 1 \, /\$2 /kofwin/position/x
0 \, /\$2 /kofwin/position/y 0 \, /\$2 /kofwin/window/x 1024 \, /\$2
/kofwin/window/y 768 \, /\$2 /kofwin/normalizedtexcoords 1;
#X msg 149 183 /\$1 /kofwin/fullscreen 1 \, /\$1 /kofwin/position/x
0 \, /\$1 /kofwin/position/y 0 \, /\$1 /kofwin/window/x 1024 \, /\$1
/kofwin/window/y 768 \, /\$1 /kofwin/normalizedtexcoords 1;
#X obj 194 79 inlet;
#X obj 470 22 tgl 15 0 empty empty empty 17 7 0 10 -262144 -1 -1 0
1;
#X msg 667 72 symbol PI;
#X obj 658 95 pack s f;
#X obj 691 24 tgl 15 0 empty empty empty 17 7 0 10 -262144 -1 -1 0
1;
#X obj 691 44 t b f;
#X msg 659 121 /\$1 /kofwin/normalizedtexcoords \$2;
#X msg 438 119 /PI /kofwin/normalizedtexcoords \$1;
#X msg 487 257 /PI /kofwin/fullscreen 0 \, /PI /kofwin/position/x \$1
\, /PI /kofwin/position/y 0 \, /PI /kofwin/window/x 800 \, /PI /kofwin/window/y
600 \, /PI /kofwin/normalizedtexcoords 1;
#X floatatom 493 230 5 0 0 0 - - -, f 5;
#X msg 370 389 /PI /kofwin/position/x \$1;
#X floatatom 368 373 5 0 0 0 - - -, f 5;
#X connect 2 0 3 0;
#X connect 3 0 4 0;
#X connect 4 0 5 0;
#X connect 5 0 1 0;
#X connect 6 0 10 0;
#X connect 7 0 6 0;
#X connect 8 0 7 0;
#X connect 9 0 2 0;
#X connect 10 0 0 0;
#X connect 11 0 6 0;
#X connect 12 0 15 0;
#X connect 13 0 14 0;
#X connect 15 0 0 0;
#X connect 16 0 12 0;
#X connect 17 0 23 0;
#X connect 18 0 19 0;
#X connect 19 0 22 0;
#X connect 20 0 21 0;
#X connect 21 0 18 0;
#X connect 21 1 19 1;
#X connect 23 0 0 0;
#X connect 24 0 0 0;
#X connect 25 0 24 0;
#X connect 26 0 0 0;
#X connect 27 0 26 0;
#X restore 389 78 pd win;
#X obj 389 60 bng 15 250 50 0 empty empty empty 17 7 0 10 -262144 -1
-1;
#X msg 60 184 /home/pi/Documents/OF/of_v0.9.3_linuxarmv6l_release/addons/ofxPof/exampleStandalone/bin/exampleStandalone
-hidecursor -open /home/pi/Documents/KOF/kof/slave_quad_pi.pd;
#X obj 106 122 bng 15 250 50 0 empty empty start 17 7 0 10 -262144
-1 -1;
#X obj 139 140 bng 15 250 50 0 empty empty stop 17 7 0 10 -258113 -1
-1;
#X obj 490 124 pofutil;
#X msg 490 100 getdir;
#X obj 490 36 r /ds/0/resave;
#X obj 490 57 b;
#X symbolatom 612 112 0 0 0 0 - - -;
#X obj 567 89 r /ds/0/filename;
#X obj 567 110 symbol;
#X msg 692 183 symbol \$1/kollabs/\$2;
#X obj 490 172 list append;
#X obj 546 89 bng 15 250 50 0 empty empty empty 17 7 0 10 -262144 -1
-1;
#X obj 490 145 route getdir;
#X obj 577 171 r RASPI-ip;
#X obj 490 195 list append;
#X obj 490 78 del 100;
#X obj 603 298 print;
#X msg 490 218 echo scp \$1/kollabs/\$2 pi@\$3:/home/pi/Documents/KOF/kollabs/\$2
| at now;
#X obj 490 274 system;
#X obj 113 371 system;
#X msg 113 238 killall -9 exampleStandalone;
#X obj 519 354 osc_bi 0 /kof/PI/pitch;
#X obj 520 377 osc_bi 0 /kof/PI/yaw;
#X obj 366 353 hsl 128 15 -50 90 0 0 /kof/PI/pitch /kof/PI/pitch empty
-2 -8 0 10 -262144 -1 -1 0 1;
#X obj 372 376 nbx 5 14 -1e+37 1e+37 0 0 /kof/PI/yaw /kof/PI/yaw empty
0 -8 0 10 -262144 -1 -1 0 256;
#X floatatom 286 729 5 0 0 0 - - -, f 5;
#X floatatom 295 540 5 0 0 0 - - -, f 5;
#X obj 237 503 route X Y setX setY;
#X floatatom 284 597 5 0 0 0 - - -, f 5;
#X obj 347 557 motorlimit2 0.05 0.005 0.08 0.04;
#X obj 347 580 - 0.5;
#X obj 237 561 * -1;
#X obj 138 524 metro 20;
#X obj 138 483 loadbang;
#X obj 138 551 f;
#X obj 138 504 tgl 15 0 empty empty empty 17 7 0 10 -262144 -1 -1 1
1;
#X obj 138 591 +;
#X floatatom 84 628 5 0 0 0 - - -, f 5;
#X floatatom 95 514 5 0 0 0 - - -, f 5;
#X obj 138 570 * 0.02;
#X obj 165 590 * 0.98;
#X obj 237 532 unpack f;
#X obj 347 528 unpack f;
#X obj 561 616 r /kof/SPHERE/pitch;
#X obj 347 659 spigot;
#X obj 347 630 t f f;
#X obj 347 684 -;
#X obj 384 686 f;
#X obj 396 628 t f f;
#X obj 423 655 sel 1;
#X obj 423 689 f;
#X obj 379 722 +;
#X obj 138 673 spigot;
#X obj 138 644 t f f;
#X obj 138 698 -;
#X obj 175 700 f;
#X obj 187 642 t f f;
#X obj 214 669 sel 1;
#X obj 175 726 f;
#X obj 138 748 +;
#X obj 237 434 route Lyre /kof/spheremode;
#X obj 382 493 tgl 15 0 empty empty empty 17 7 0 10 -262144 -1 -1 0
1;
#X floatatom 240 594 5 0 0 0 - - -, f 5;
#X obj 423 490 bng 15 250 50 0 empty empty empty 17 7 0 10 -262144
-1 -1;
#X floatatom 82 733 5 0 0 0 - - -, f 5;
#X obj 138 771 s /kof/yaw;
#X obj 367 754 s /kof/pitch;
#X obj 312 478 change;
#X floatatom 299 635 5 0 0 0 - - -, f 5;
#X obj 473 658 r /kof/pitch;
#X obj 216 699 r /kof/yaw;
#X obj 735 458 r /kof/spheremode;
#X obj 684 359 #osc_bi 0 /kof/pitch;
#X obj 682 384 #osc_bi 0 /kof/yaw;
#X obj 617 458 r /kof/pitch;
#X obj 495 453 r /kof/yaw;
#X msg 489 480 /kof/yaw \$1;
#X msg 617 486 /kof/pitch \$1;
#X msg 737 481 /kof/spheremode \$1;
#X obj 612 521 list prepend TALK _all_;
#X obj 236 402 r NET-fromserver;
#X obj 612 550 s NET-toserver;
#X obj 773 567 tgl 15 0 empty empty empty 17 7 0 10 -262144 -1 -1 0
1;
#X obj 348 603 * 180;
#X obj 138 617 * 1;
#X msg 652 715 \; /kof/yaw 0 \; /kof/pitch 0;
#X obj 652 656 r /ds/0/scene/current;
#X obj 652 689 sel 0 15;
#X connect 0 0 3 0;
#X connect 1 0 4 0;
#X connect 2 0 33 0;
#X connect 3 0 1 1;
#X connect 4 0 2 0;
#X connect 5 0 8 0;
#X connect 7 0 5 0;
#X connect 8 0 6 0;
#X connect 9 0 10 0;
#X connect 10 0 5 0;
#X connect 12 0 11 0;
#X connect 13 0 1 0;
#X connect 14 0 13 0;
#X connect 15 0 34 0;
#X connect 16 0 26 0;
#X connect 17 0 16 0;
#X connect 18 0 19 0;
#X connect 19 0 29 0;
#X connect 21 0 22 0;
#X connect 22 0 20 0;
#X connect 22 0 24 1;
#X connect 24 0 28 0;
#X connect 25 0 22 0;
#X connect 26 0 24 0;
#X connect 27 0 28 1;
#X connect 28 0 31 0;
#X connect 29 0 17 0;
#X connect 31 0 32 0;
#X connect 34 0 1 0;
#X connect 39 0 80 0;
#X connect 41 0 55 0;
#X connect 41 3 40 0;
#X connect 41 3 56 0;
#X connect 43 0 42 0;
#X connect 43 0 44 0;
#X connect 44 0 97 0;
#X connect 45 0 48 1;
#X connect 45 0 76 0;
#X connect 46 0 48 0;
#X connect 47 0 49 0;
#X connect 48 0 53 0;
#X connect 49 0 46 0;
#X connect 50 0 54 0;
#X connect 50 0 98 0;
#X connect 52 0 48 1;
#X connect 53 0 50 0;
#X connect 54 0 50 1;
#X connect 55 0 45 0;
#X connect 56 0 43 0;
#X connect 58 0 60 0;
#X connect 59 0 58 0;
#X connect 59 1 61 1;
#X connect 60 0 65 0;
#X connect 61 0 60 1;
#X connect 62 0 58 1;
#X connect 62 1 63 0;
#X connect 63 0 61 0;
#X connect 63 0 64 0;
#X connect 64 0 65 1;
#X connect 65 0 80 0;
#X connect 66 0 68 0;
#X connect 67 0 66 0;
#X connect 67 1 69 1;
#X connect 68 0 73 0;
#X connect 69 0 68 1;
#X connect 70 0 66 1;
#X connect 70 1 71 0;
#X connect 71 0 69 0;
#X connect 71 0 72 0;
#X connect 72 0 73 1;
#X connect 73 0 79 0;
#X connect 74 0 41 0;
#X connect 74 1 75 0;
#X connect 74 1 77 0;
#X connect 74 1 81 0;
#X connect 78 0 79 0;
#X connect 81 0 62 0;
#X connect 81 0 70 0;
#X connect 83 0 64 1;
#X connect 84 0 72 1;
#X connect 85 0 92 0;
#X connect 85 0 96 0;
#X connect 88 0 91 0;
#X connect 89 0 90 0;
#X connect 90 0 93 0;
#X connect 91 0 93 0;
#X connect 92 0 93 0;
#X connect 93 0 95 0;
#X connect 94 0 74 0;
#X connect 97 0 59 0;
#X connect 97 0 82 0;
#X connect 98 0 67 0;
#X connect 100 0 101 0;
#X connect 101 0 99 0;
#X connect 101 1 99 0;
#X coords 0 -1 1 1 85 60 1 100 100;
