#N canvas 355 220 718 486 10;
#X obj 157 97 pofutil;
#X obj 157 117 route dirbaseext;
#X msg 157 75 dirbaseext /\$1;
#X obj 157 193 list prepend;
#X obj 315 119 pofutil;
#X msg 315 97 getdir;
#X obj 315 139 route getdir;
#X obj 157 140 route /img/ /vid/;
#X obj 157 4 inlet file;
#X obj 81 243 inlet head;
#X obj 157 386 pofimage ./media/img/bikers.jpg tex;
#X obj 379 388 poffilm tex;
#X obj 194 355 pofvisible;
#X obj 379 367 pofvisible;
#X obj 157 410 outlet imghead;
#X obj 379 413 outlet vidhead;
#X obj 352 194 list prepend;
#X obj 352 245 t a b;
#X obj 379 293 t f;
#X msg 379 267 1;
#X obj 157 242 t a b;
#X msg 184 264 0;
#X obj 194 330 == 0;
#X text 404 294 0:image 1:video;
#X obj 449 351 tgl 15 0 empty empty empty 17 7 0 10 -262144 -1 -1 0
1;
#X obj 157 24 symbol;
#X obj 121 7 bng 15 250 50 0 empty empty empty 17 7 0 10 -262144 -1
-1;
#X msg 157 218 set \$1/media/img/\$2.\$3;
#X msg 352 217 load \$1/media/vid/\$2.\$3 \, play 1;
#X obj 481 261 print debug;
#X obj 157 50 t s b;
#X connect 0 0 1 0;
#X connect 1 0 7 0;
#X connect 2 0 0 0;
#X connect 3 0 27 0;
#X connect 4 0 6 0;
#X connect 5 0 4 0;
#X connect 6 0 3 1;
#X connect 6 0 16 1;
#X connect 7 0 3 0;
#X connect 7 1 16 0;
#X connect 8 0 25 0;
#X connect 9 0 12 0;
#X connect 9 0 13 0;
#X connect 10 0 14 0;
#X connect 11 0 15 0;
#X connect 12 0 10 0;
#X connect 13 0 11 0;
#X connect 16 0 28 0;
#X connect 17 0 11 0;
#X connect 17 1 19 0;
#X connect 18 0 13 0;
#X connect 18 0 22 0;
#X connect 19 0 18 0;
#X connect 20 0 10 0;
#X connect 20 1 21 0;
#X connect 21 0 18 0;
#X connect 22 0 12 0;
#X connect 25 0 30 0;
#X connect 26 0 25 0;
#X connect 27 0 20 0;
#X connect 28 0 17 0;
#X connect 30 0 2 0;
#X connect 30 1 5 0;
