#N canvas 94 75 1021 728 10;
#X obj 61 72 cnv 15 198 31 empty empty empty 20 12 0 14 -233017 -66577
0;
#X obj 65 76 tgl 15 1 /kof/\$1/state /kof/\$1/state on/off 17 7 0 10
-4034 -1 -1 1 1;
#N canvas 818 161 618 355 storage_&_osc 0;
#X obj 39 221 ds_reg \$2 /kof/\$1/fadetime;
#X obj 369 221 osc_bi \$2 /kof/\$1/fadetime;
#X obj 39 251 ds_reg \$2 /kof/\$1/state;
#X obj 369 251 osc_bi \$2 /kof/\$1/state;
#X obj 39 201 ds_reg \$2 /kof/\$1/media;
#X obj 369 201 osc_bi \$2 /kof/\$1/media;
#X obj 39 111 ds_reg \$2 /kof/\$1/pitch;
#X obj 369 111 osc_bi \$2 /kof/\$1/pitch;
#X obj 39 131 ds_reg \$2 /kof/\$1/yaw;
#X obj 369 131 osc_bi \$2 /kof/\$1/yaw;
#X obj 39 151 ds_reg \$2 /kof/\$1/fov;
#X obj 369 151 osc_bi \$2 /kof/\$1/fov;
#X obj 39 281 ds_reg \$2 /kof/\$1/alpha;
#X obj 369 281 osc_bi \$2 /kof/\$1/alpha;
#X restore 278 77 pd storage_&_osc;
#X obj 14 282 cnv 15 360 60 empty empty creation_arguments: 3 8 0 12
-191407 -1 0;
#X text 19 301 1st: module ID \, needs to be unique \; 2nd: storage
domain;
#N canvas 769 181 450 300 init 0;
#X obj 98 76 loadbang;
#X obj 98 98 list append \$1;
#X obj 173 74 bng 15 250 50 0 empty empty empty 17 7 0 10 -262144 -1
-1;
#X msg 98 121 \; /kof/\$1/yaw 0 \; /kof/\$1/pitch 0 \; /kof/\$1/fov
200 \; /kof/\$1/fadetime 0 \; /kof/\$1/alpha 0.5 \; /kof/\$1/state
1;
#X connect 0 0 1 0;
#X connect 1 0 3 0;
#X connect 2 0 1 0;
#X restore 278 56 pd init;
#X text 34 356 TODO;
#X text 30 379 inversion corners top/bottom;
#X text 34 394 gestion film/image;
#X text 34 410 liste medias Cream;
#X floatatom 561 443 5 0 0 0 - - -, f 5;
#X obj 477 60 pofvisible 1;
#X floatatom 608 146 5 0 0 0 - - -, f 5;
#X obj 477 594 pofsphere 600 50;
#X floatatom 556 487 5 0 0 0 - - -, f 5;
#X obj 477 397 pofrotate x;
#X obj 477 485 pofrotate y;
#X obj 542 30 r /kof/\$1/state;
#N canvas 5 75 450 300 alpha 0;
#X obj 139 159 line;
#X obj 139 135 pack f f;
#X obj 192 115 r /kof/\$1/fadetime;
#X obj 139 181 outlet;
#X obj 139 80 r /kof/\$1/alpha;
#X connect 0 0 3 0;
#X connect 1 0 0 0;
#X connect 2 0 1 1;
#X connect 4 0 1 0;
#X restore 570 73 pd alpha;
#X obj 553 375 r /kof/\$1/pitch;
#X obj 632 465 r /kof/\$1/yaw;
#X obj 594 98 r /kof/\$1/fov;
#X obj 62 106 cnv 15 50 95 empty empty empty 20 12 0 14 -233017 -66577
0;
#X obj 160 80 bng 15 250 50 0 /kof/\$1/media/openpanel empty open 17
7 0 10 -262144 -1 -1;
#X obj 77 131 vsl 15 60 0 1 0 0 /kof/\$1/alpha /kof/\$1/alpha alpha1
-10 -9 0 10 -262144 -1 -1 5900 0;
#X obj 137 131 vsl 15 60 -50 90 0 0 /kof/\$1/pitch /kof/\$1/pitch pitch
-10 -9 0 10 -262144 -1 -1 2395 1;
#X obj 183 131 vsl 15 60 -180 180 0 0 /kof/\$1/yaw /kof/\$1/yaw yaw
-10 -9 0 10 -262144 -1 -1 1394 1;
#X obj 227 131 vsl 15 60 0 1000 0 0 /kof/\$1/fov /kof/\$1/fov fov -10
-9 0 10 -262144 -1 -1 3580 1;
#X obj 477 148 poftranslate 0 0 200;
#X obj 477 96 pofcolor 1 1 1 1;
#X obj 477 28 inlet;
#X obj 789 90 openpanel;
#X obj 789 70 symbol;
#X obj 789 50 r /kof/\$1/media/openpanel;
#X obj 789 135 s /kof/\$1/media;
#X obj 594 122 Line1 100;
#X obj 554 397 Line1 100;
#X obj 632 485 Line1 100;
#X obj 534 518 r /kof/\$1/media;
#X obj 534 564 pofsphere 600 50;
#X obj 473 289 pofrotate x;
#X obj 473 314 pofrotate y;
#X obj 549 291 Line1 100;
#X obj 554 183 r /kof/\$3/pitch;
#X obj 553 311 Line1 100;
#X obj 673 178 r /kof/\$3/yaw;
#X obj 477 539 kof_source;
#N canvas 729 295 515 414 get_relative_path 0;
#X obj 40 22 inlet fullpath;
#X obj 101 265 outlet dir/base.name;
#X obj 40 93 pofutil;
#X obj 40 115 route stringfind;
#X msg 40 69 stringfind \$1 /media/;
#X obj 40 139 sel -1;
#X obj 40 46 t s s;
#X obj 73 191 list;
#X obj 118 142 list fromsymbol;
#X obj 73 216 list split;
#X obj 73 161 t b f;
#X obj 101 240 list tosymbol;
#X obj 110 190 + 7;
#X connect 0 0 6 0;
#X connect 2 0 3 0;
#X connect 3 0 5 0;
#X connect 4 0 2 0;
#X connect 5 1 10 0;
#X connect 6 0 4 0;
#X connect 6 1 8 0;
#X connect 7 0 9 0;
#X connect 8 0 7 1;
#X connect 9 1 11 0;
#X connect 10 0 7 0;
#X connect 10 1 12 0;
#X connect 11 0 1 0;
#X connect 12 0 9 1;
#X restore 789 112 pd get_relative_path;
#N canvas 10 75 433 416 get_relative_path_old 0;
#X obj 155 67 pofutil;
#X msg 155 43 dirbaseext \$1;
#X obj 155 87 route dirbaseext;
#X obj 155 115 list split 1;
#X obj 155 210 pofutil;
#X obj 155 230 route dirbaseext;
#X obj 155 255 unpack s s s;
#X msg 155 186 dirbaseext \$1;
#N canvas 490 325 450 300 strip_last_slash 0;
#X obj 89 36 inlet;
#X obj 89 214 outlet;
#X obj 89 68 list fromsymbol;
#X obj 89 95 t a a;
#X obj 89 169 list split;
#X obj 116 118 list length;
#X obj 116 138 - 1;
#X obj 89 190 list tosymbol;
#X connect 0 0 2 0;
#X connect 2 0 3 0;
#X connect 3 0 4 0;
#X connect 3 1 5 0;
#X connect 4 0 7 0;
#X connect 5 0 6 0;
#X connect 6 0 4 1;
#X connect 7 0 1 0;
#X restore 155 155 pd strip_last_slash;
#X obj 189 309 pack s s s;
#X obj 214 285 unpack s s;
#X obj 155 21 inlet fullpath;
#X msg 189 331 list \$1/\$2.\$3;
#X obj 189 354 outlet dir/base.name;
#X connect 0 0 2 0;
#X connect 1 0 0 0;
#X connect 2 0 3 0;
#X connect 3 0 8 0;
#X connect 3 1 10 0;
#X connect 4 0 5 0;
#X connect 5 0 6 0;
#X connect 6 1 9 0;
#X connect 7 0 4 0;
#X connect 8 0 7 0;
#X connect 9 0 12 0;
#X connect 10 0 9 1;
#X connect 10 1 9 2;
#X connect 11 0 1 0;
#X connect 12 0 13 0;
#X restore 822 437 pd get_relative_path_old;
#N canvas 5 75 450 300 mux 0;
#X obj 110 42 inlet;
#X obj 202 43 inlet;
#X obj 258 43 inlet;
#X obj 110 109 spigot;
#X obj 202 112 spigot;
#X obj 154 177 outlet;
#X obj 143 88 == 0;
#X obj 235 90 == 1;
#X connect 0 0 3 0;
#X connect 1 0 4 0;
#X connect 2 0 6 0;
#X connect 2 0 7 0;
#X connect 3 0 5 0;
#X connect 4 0 5 0;
#X connect 6 0 3 1;
#X connect 7 0 4 1;
#X restore 703 374 pd mux;
#X obj 747 373 r /kof/spheremode;
#X obj 719 351 r /kof/pitch;
#N canvas 5 75 450 300 mux 0;
#X obj 110 42 inlet;
#X obj 202 43 inlet;
#X obj 258 43 inlet;
#X obj 110 109 spigot;
#X obj 202 112 spigot;
#X obj 154 177 outlet;
#X obj 143 88 == 0;
#X obj 235 90 == 1;
#X connect 0 0 3 0;
#X connect 1 0 4 0;
#X connect 2 0 6 0;
#X connect 2 0 7 0;
#X connect 3 0 5 0;
#X connect 4 0 5 0;
#X connect 6 0 3 1;
#X connect 7 0 4 1;
#X restore 752 421 pd mux;
#X obj 797 421 r /kof/spheremode;
#X obj 768 397 r /kof/yaw;
#X text 724 383 /kof/pitch & /kof/yaw sont définis dans raspi-slave.
, f 28;
#X obj 792 454 tgl 15 0 empty empty empty 17 7 0 10 -262144 -1 -1 1
1;
#X floatatom 731 438 5 0 0 0 - - -, f 5;
#X floatatom 508 347 5 0 0 0 - - -, f 5;
#X floatatom 706 360 5 0 0 0 - - -, f 5;
#X obj 842 271 pofrotate x;
#X obj 842 296 pofrotate y;
#X obj 772 170 r NET-fromserver;
#X obj 774 198 route /kof/pitch /kof/yaw /kof/spheremode;
#X floatatom 629 332 5 0 0 0 - - -, f 5;
#X obj 665 267 -;
#X floatatom 706 213 5 0 0 0 - - -, f 5;
#X floatatom 759 279 5 0 0 0 - - -, f 5;
#X floatatom 502 204 5 0 0 0 - - -, f 5;
#X obj 551 258 -;
#X floatatom 591 262 5 0 0 0 - - -, f 5;
#X obj 567 233 t b f;
#X obj 684 246 t b f;
#X connect 10 0 15 1;
#X connect 11 0 29 0;
#X connect 12 0 28 3;
#X connect 14 0 16 1;
#X connect 15 0 16 0;
#X connect 16 0 46 0;
#X connect 17 0 11 0;
#X connect 18 0 29 4;
#X connect 19 0 58 0;
#X connect 19 0 36 0;
#X connect 20 0 37 0;
#X connect 21 0 35 0;
#X connect 28 0 40 0;
#X connect 29 0 28 0;
#X connect 30 0 11 0;
#X connect 31 0 47 0;
#X connect 32 0 31 0;
#X connect 33 0 32 0;
#X connect 35 0 28 3;
#X connect 36 0 15 1;
#X connect 37 0 16 1;
#X connect 38 0 46 1;
#X connect 40 0 41 0;
#X connect 41 0 15 0;
#X connect 42 0 40 1;
#X connect 43 0 69 0;
#X connect 44 0 41 1;
#X connect 45 0 65 0;
#X connect 46 0 13 0;
#X connect 46 1 39 0;
#X connect 47 0 34 0;
#X connect 49 0 59 0;
#X connect 50 0 49 2;
#X connect 51 0 49 1;
#X connect 51 0 57 0;
#X connect 53 0 52 2;
#X connect 53 0 56 0;
#X connect 54 0 52 1;
#X connect 60 0 61 0;
#X connect 62 0 63 0;
#X connect 63 0 60 1;
#X connect 63 0 67 0;
#X connect 63 0 71 0;
#X connect 63 1 61 1;
#X connect 63 1 72 0;
#X connect 65 0 44 0;
#X connect 69 0 42 0;
#X connect 69 0 70 0;
#X connect 71 0 69 0;
#X connect 71 1 69 1;
#X connect 72 0 65 0;
#X connect 72 1 65 1;
#X coords 0 -1 1 1 200 150 1 60 55;
