#N canvas 1 83 472 691 10;
#X obj 58 568 outlet;
#X msg 58 160 corner 3 \$1 \$2;
#X msg 91 283 corner 2 \$1 \$2;
#X msg 142 406 corner 1 \$1 \$2;
#X msg 201 519 corner 0 \$1 \$2;
#X obj 58 134 Line2 100;
#X obj 91 249 Line2 100;
#X obj 142 379 Line2 100;
#X obj 201 496 Line2 100;
#X obj 58 88 r /kof/\$1/\$2/corner/top/left/x;
#X obj 83 112 r /kof/\$1/\$2/corner/top/left/y;
#X obj 92 200 r /kof/\$1/\$2/corner/top/right/x;
#X obj 116 224 r /kof/\$1/\$2/corner/top/right/y;
#X obj 142 323 r /kof/\$1/\$2/corner/bottom/right/x;
#X obj 167 350 r /kof/\$1/\$2/corner/bottom/right/y;
#X obj 201 445 r /kof/\$1/\$2/corner/bottom/left/x;
#X obj 226 470 r /kof/\$1/\$2/corner/bottom/left/y;
#X connect 1 0 0 0;
#X connect 2 0 0 0;
#X connect 3 0 0 0;
#X connect 4 0 0 0;
#X connect 5 0 1 0;
#X connect 6 0 2 0;
#X connect 7 0 3 0;
#X connect 8 0 4 0;
#X connect 9 0 5 0;
#X connect 10 0 5 1;
#X connect 11 0 6 0;
#X connect 12 0 6 1;
#X connect 13 0 7 0;
#X connect 14 0 7 1;
#X connect 15 0 8 0;
#X connect 16 0 8 1;
