#N canvas 621 246 723 582 10;
#X obj 563 224 pofutil;
#X obj 563 244 route dirbaseext;
#X msg 563 202 dirbaseext /\$1;
#X obj 164 307 list prepend;
#X obj 322 172 pofutil;
#X msg 322 150 getdir;
#X obj 322 192 route getdir;
#X obj 563 267 route /img/ /vid/;
#X obj 157 4 inlet file;
#X obj 88 357 inlet head;
#X obj 164 500 pofimage ./media/img/bikers.jpg tex;
#X obj 386 502 poffilm tex;
#X obj 201 469 pofvisible;
#X obj 386 481 pofvisible;
#X obj 164 524 outlet imghead;
#X obj 386 527 outlet vidhead;
#X obj 359 291 list prepend;
#X obj 359 353 t a b;
#X obj 386 407 t f;
#X msg 386 381 1;
#X obj 164 356 t a b;
#X msg 191 378 0;
#X obj 201 444 == 0;
#X text 411 408 0:image 1:video;
#X obj 157 24 symbol;
#X obj 121 7 bng 15 250 50 0 empty empty empty 17 7 0 10 -262144 -1
-1;
#X msg 464 474 play 0;
#X obj 464 442 sel 0;
#X obj 519 453 r /kof/\$1/play/\$2;
#X obj 359 311 t a b;
#X obj 523 384 s /kof/\$1/play/\$2;
#X msg 524 362 0;
#X msg 484 362 1;
#X msg 519 475 play \$1;
#X obj 417 358 del 100;
#X obj 45 184 pofutil;
#X obj 45 204 route stringfind;
#X msg 476 10 symbol /img/erty/drg/drfg/;
#X obj 45 224 sel 0;
#X obj 157 93 t s s b;
#X obj 45 142 t s s;
#X obj 45 245 symbol;
#X obj 183 186 pofutil;
#X obj 183 206 route stringfind;
#X obj 183 226 sel 0;
#X obj 183 144 t s s;
#X obj 183 247 symbol;
#X msg 164 332 set \$1/../media/\$2;
#X msg 359 331 play 0 \, load \$1/../media/\$2;
#X obj 100 450 print;
#X msg 45 163 stringfind \$1 img/;
#X msg 183 166 stringfind \$1 vid/;
#X obj 157 52 sel _;
#X obj 197 50 t s s;
#X connect 0 0 1 0;
#X connect 1 0 7 0;
#X connect 2 0 0 0;
#X connect 3 0 47 0;
#X connect 4 0 6 0;
#X connect 5 0 4 0;
#X connect 6 0 3 1;
#X connect 6 0 16 1;
#X connect 8 0 24 0;
#X connect 9 0 12 0;
#X connect 9 0 13 0;
#X connect 10 0 14 0;
#X connect 11 0 15 0;
#X connect 12 0 10 0;
#X connect 13 0 11 0;
#X connect 16 0 29 0;
#X connect 17 0 11 0;
#X connect 17 1 34 0;
#X connect 18 0 13 0;
#X connect 18 0 22 0;
#X connect 18 0 27 0;
#X connect 19 0 18 0;
#X connect 20 0 10 0;
#X connect 20 1 21 0;
#X connect 21 0 18 0;
#X connect 22 0 12 0;
#X connect 24 0 52 0;
#X connect 25 0 24 0;
#X connect 26 0 11 0;
#X connect 27 0 31 0;
#X connect 28 0 33 0;
#X connect 29 0 48 0;
#X connect 29 1 31 0;
#X connect 31 0 30 0;
#X connect 32 0 30 0;
#X connect 33 0 11 0;
#X connect 34 0 19 0;
#X connect 34 0 32 0;
#X connect 35 0 36 0;
#X connect 36 0 38 0;
#X connect 38 0 41 0;
#X connect 39 0 40 0;
#X connect 39 0 49 0;
#X connect 39 1 45 0;
#X connect 39 2 5 0;
#X connect 40 0 50 0;
#X connect 40 1 41 1;
#X connect 41 0 3 0;
#X connect 42 0 43 0;
#X connect 43 0 44 0;
#X connect 44 0 46 0;
#X connect 45 0 51 0;
#X connect 45 1 46 1;
#X connect 46 0 16 0;
#X connect 47 0 20 0;
#X connect 48 0 17 0;
#X connect 50 0 35 0;
#X connect 51 0 42 0;
#X connect 52 1 53 0;
#X connect 53 0 39 0;
#X connect 53 1 52 1;
