#N canvas 196 228 723 582 10;
#X obj 556 171 pofutil;
#X obj 556 191 route dirbaseext;
#X msg 556 149 dirbaseext /\$1;
#X obj 157 254 list prepend;
#X obj 315 119 pofutil;
#X msg 315 97 getdir;
#X obj 315 139 route getdir;
#X obj 556 214 route /img/ /vid/;
#X obj 157 4 inlet file;
#X obj 81 304 inlet head;
#X obj 157 447 pofimage ./media/img/bikers.jpg tex;
#X obj 379 449 poffilm tex;
#X obj 194 416 pofvisible;
#X obj 379 428 pofvisible;
#X obj 157 471 outlet imghead;
#X obj 379 474 outlet vidhead;
#X obj 352 238 list prepend;
#X obj 352 300 t a b;
#X obj 379 354 t f;
#X msg 379 328 1;
#X obj 157 303 t a b;
#X msg 184 325 0;
#X obj 194 391 == 0;
#X text 404 355 0:image 1:video;
#X obj 157 24 symbol;
#X obj 121 7 bng 15 250 50 0 empty empty empty 17 7 0 10 -262144 -1
-1;
#X obj 157 50 t s b;
#X msg 157 279 set \$1/../media/img/\$2.\$3;
#X msg 457 421 play 0;
#X obj 457 389 sel 0;
#X msg 352 278 play 0 \, load \$1/../media/vid/\$2.\$3;
#X obj 512 400 r /kof/\$1/play/\$2;
#X obj 352 258 t a b;
#X obj 516 331 s /kof/\$1/play/\$2;
#X msg 517 309 0;
#X msg 477 309 1;
#X msg 512 422 play \$1;
#X obj 410 305 del 100;
#X obj 508 74 pofutil;
#X obj 508 94 route stringfind;
#X msg 508 54 stringfind \$1 /img/;
#X msg 476 10 symbol /img/erty/drg/drfg/;
#X obj 508 114 sel 0;
#X connect 0 0 1 0;
#X connect 1 0 7 0;
#X connect 2 0 0 0;
#X connect 3 0 27 0;
#X connect 4 0 6 0;
#X connect 5 0 4 0;
#X connect 6 0 3 1;
#X connect 6 0 16 1;
#X connect 8 0 24 0;
#X connect 9 0 12 0;
#X connect 9 0 13 0;
#X connect 10 0 14 0;
#X connect 11 0 15 0;
#X connect 12 0 10 0;
#X connect 13 0 11 0;
#X connect 16 0 32 0;
#X connect 17 0 11 0;
#X connect 17 1 37 0;
#X connect 18 0 13 0;
#X connect 18 0 22 0;
#X connect 18 0 29 0;
#X connect 19 0 18 0;
#X connect 20 0 10 0;
#X connect 20 1 21 0;
#X connect 21 0 18 0;
#X connect 22 0 12 0;
#X connect 24 0 26 0;
#X connect 25 0 24 0;
#X connect 26 1 5 0;
#X connect 27 0 20 0;
#X connect 28 0 11 0;
#X connect 29 0 34 0;
#X connect 30 0 17 0;
#X connect 31 0 36 0;
#X connect 32 0 30 0;
#X connect 32 1 34 0;
#X connect 34 0 33 0;
#X connect 35 0 33 0;
#X connect 36 0 11 0;
#X connect 37 0 19 0;
#X connect 37 0 35 0;
#X connect 38 0 39 0;
#X connect 39 0 42 0;
#X connect 40 0 38 0;
