#N canvas 7 75 450 300 10;
#X obj 96 51 inlet;
#X obj 181 54 inlet;
#X obj 96 163 t b f;
#X obj 96 117 line;
#X obj 96 196 del 5;
#X obj 139 162 t b f;
#X obj 96 219 f;
#X obj 96 242 pack f f;
#X obj 181 117 line;
#X obj 96 266 outlet;
#X obj 276 51 inlet;
#X obj 96 93 pack f \$1;
#X obj 181 93 pack f \$1;
#X connect 0 0 11 0;
#X connect 1 0 12 0;
#X connect 2 0 4 0;
#X connect 2 1 6 1;
#X connect 3 0 2 0;
#X connect 4 0 6 0;
#X connect 5 0 4 0;
#X connect 5 1 7 1;
#X connect 6 0 7 0;
#X connect 7 0 9 0;
#X connect 8 0 5 0;
#X connect 10 0 11 1;
#X connect 10 0 12 1;
#X connect 11 0 3 0;
#X connect 12 0 8 0;
