#N canvas 8 75 450 300 10;
#X obj 96 51 inlet;
#X obj 96 117 line;
#X obj 96 266 outlet;
#X obj 276 51 inlet;
#X obj 96 93 pack f \$1;
#X connect 0 0 4 0;
#X connect 1 0 2 0;
#X connect 3 0 4 1;
#X connect 4 0 1 0;
