#N canvas 750 148 686 536 10;
#X obj 50 309 kof_media QUAD\$1;
#X obj 31 378 kof_quadmask MASK\$1;
#X obj 280 300 kof_sphere SPHERE 0 \$1;
#X obj 31 59 inlet;
#X obj 110 122 tgl 15 0 empty empty on/off 17 7 0 10 -4034 -1 -1 1
1;
#X obj 223 108 loadbang;
#X msg 223 131 1, f 2;
#X obj 330 189 poftranslate;
#X obj 31 214 poffbo 800 600;
#X obj 227 212 pofrect 800 600;
#X obj 31 256 t a a a a;
#X obj 228 191 pofvisible;
#X obj 245 163 tgl 15 0 empty empty empty 17 7 0 10 -262144 -1 -1 0
1;
#X obj 341 142 poftranslate;
#X obj 31 164 pofvisible 1;
#X connect 3 0 14 0;
#X connect 4 0 14 0;
#X connect 5 0 6 0;
#X connect 6 0 4 0;
#X connect 8 0 10 0;
#X connect 10 0 1 0;
#X connect 10 1 0 0;
#X connect 10 2 2 0;
#X connect 11 0 9 0;
#X connect 12 0 11 0;
#X connect 14 0 8 0;
#X coords 0 -1 1 1 85 40 1 100 100;
