#N canvas 155 460 1155 606 10;
#X obj 83 -22 pofhead;
#X obj 106 22 s /pofhead/slave;
#X obj 131 152 pofrotate x;
#X floatatom 206 32 5 0 0 0 - - -, f 5;
#X floatatom 208 135 5 0 0 0 - - -, f 5;
#X obj 147 72 r /slave_quad/base_rot/pitch;
#X obj 152 93 r /slave_quad/base_rot/yaw;
#X obj 361 27 ds_reg \$2 /kof/\$1/pitch;
#X obj 530 27 osc_bi \$2 /kof/\$1/pitch;
#X obj 361 47 ds_reg \$2 /kof/\$1/yaw;
#X obj 530 47 osc_bi \$2 /kof/\$1/yaw;
#X obj 337 310 ds_gui \$1;
#X msg 535 101 1;
#X obj 460 180 pipe 500;
#X msg 460 202 \; /ds/\$1/recall 0;
#X obj 583 227 t f f;
#X msg 650 204 1;
#X obj 583 289 pipe 500;
#X obj 583 175 r /save;
#X msg 616 247 \; /ds/\$1/store;
#X obj 460 118 t f f f;
#X obj 583 197 f \$1;
#X msg 583 311 \; /ds/\$1/resave bang;
#X obj 509 361 bng 25 250 50 0 /save empty SAVE 28 12 0 10 -262144
-1 -1;
#X obj 460 99 pipe 2000;
#X obj 460 77 r /init/delayed;
#X obj 229 318 vsl 15 60 -50 90 0 0 /kof/\$1/pitch /kof/\$1/pitch pitch
-10 -9 0 10 -262144 -1 -1 0 0;
#X obj 275 318 vsl 15 60 -180 180 0 0 /kof/\$1/yaw /kof/\$1/yaw yaw
-10 -9 0 10 -262144 -1 -1 0 0;
#X text 162 333 base;
#X text 157 351 rotation;
#X obj 251 341 bng 15 250 50 0 empty empty empty 17 7 0 10 -262144
-1 -1;
#X msg 252 262 0;
#X msg 493 138 \; /ds/\$1/loadfile ../presets/screen\$1;
#X obj 332 442 kof_win 0 \$1;
#X obj 216 192 oscparse;
#X obj 131 174 pofrotate y;
#X obj 335 83 r /init/delayed;
#X msg 335 103 1;
#X obj 296 204 route /\$1;
#X obj 296 256 s /osc/0/in;
#X obj 334 123 ../PdClient NET E1;
#X obj 296 181 r NET-fromserver;
#X obj 16 124 r NET-fromserver;
#X obj 705 359 r NET-fromserver;
#X obj 705 382 route /loadpreset;
#X obj 661 460 ds_gui 0;
#X obj 115 389 kof_sphere SPHERE 0;
#X text 838 360 reception changement de scene;
#X obj 661 440 ds_logic 0;
#X obj 821 440 ds_transition 0;
#X obj 821 460 ds_transition_gui 0;
#X text 843 421 ajout domaine 0 + passage quad et sphere;
#X text 954 435 a domaine 0;
#X obj 16 146 print fromserver;
#X obj 870 397 print;
#X obj 705 404 s /ds/0/scene/current;
#X obj 837 262 r /init/delayed;
#X obj 953 228 r /reloadfile;
#X msg 837 284 \; /ds/0/loadfile ../presets/preset-test;
#X msg 953 249 \; /ds/0/reload bang;
#X text 876 207 (re)chargement fichier preset;
#X obj 346 227 s /osc/0/in;
#X obj 114 544 kof_media QUAD\$1 0;
#X obj 83 0 t a a a;
#X obj 86 42 s /pofhead/mask;
#X obj 447 256 ds_logic \$1;
#X obj 802 51 r /pofhead/mask;
#X obj 802 82 kof_quadmask MASK \$1;
#X connect 0 0 63 0;
#X connect 2 0 35 0;
#X connect 3 0 2 1;
#X connect 4 0 35 1;
#X connect 5 0 2 1;
#X connect 6 0 35 1;
#X connect 12 0 20 0;
#X connect 13 0 14 0;
#X connect 15 0 17 0;
#X connect 15 1 19 0;
#X connect 16 0 15 0;
#X connect 17 0 22 0;
#X connect 18 0 21 0;
#X connect 20 0 13 0;
#X connect 20 1 32 0;
#X connect 21 0 15 0;
#X connect 24 0 20 0;
#X connect 25 0 24 0;
#X connect 30 0 31 0;
#X connect 31 0 26 0;
#X connect 31 0 27 0;
#X connect 36 0 37 0;
#X connect 37 0 40 0;
#X connect 38 0 39 0;
#X connect 38 1 61 0;
#X connect 41 0 38 0;
#X connect 42 0 53 0;
#X connect 43 0 44 0;
#X connect 44 0 54 0;
#X connect 44 0 55 0;
#X connect 56 0 58 0;
#X connect 57 0 59 0;
#X connect 63 0 64 0;
#X connect 63 1 1 0;
#X connect 63 2 46 0;
#X connect 66 0 67 0;
#X coords 0 -1 1 1 500 300 1 100 300;
