#N canvas 93 75 644 706 10;
#X declare -path ../kollabs -lib pof;
#X declare -path ../kollabs;
#X obj 20 18 slave_quad PI;
#X obj 23 331 declare -path ../kollabs;
#X obj 251 325 r NET-fromserver;
#X obj 398 594 s /kof/PI/pitch;
#X obj 153 538 s /kof/PI/yaw;
#X obj 376 678 s NET-toserver;
#X msg 376 648 TALK _all_ /kof/PI/pitch \$1;
#X floatatom 421 632 5 0 0 0 - - -, f 5;
#X floatatom 462 458 5 0 0 0 - - -, f 5;
#X floatatom 310 463 5 0 0 0 - - -, f 5;
#X obj 251 426 route X Y setX setY;
#X floatatom 406 481 5 0 0 0 - - -, f 5;
#X msg 176 613 TALK _all_ Lyre setY \$1;
#X obj 183 586 hsl 128 15 0 1 0 0 empty empty empty -2 -8 0 10 -262144
-1 -1 0 1;
#X floatatom 335 554 5 0 0 0 - - -, f 5;
#X obj 398 514 motorlimit2 0.05 0.005 0.08 0.04;
#X obj 398 560 * 180;
#X obj 398 537 - 0.5;
#X obj 103 647 hsl 128 15 0 1 0 0 empty empty empty -2 -8 0 10 -262144
-1 -1 0 1;
#X msg 96 674 TALK _all_ Lyre setX \$1;
#X obj 252 484 * -1;
#X obj 153 447 metro 20;
#X obj 153 406 loadbang;
#X obj 153 474 f;
#X obj 153 427 tgl 15 0 empty empty empty 17 7 0 10 -262144 -1 -1 1
1;
#X obj 153 514 +;
#X floatatom 99 551 5 0 0 0 - - -, f 5;
#X floatatom 110 437 5 0 0 0 - - -, f 5;
#X obj 153 493 * 0.02;
#X obj 180 513 * 0.98;
#X obj 252 455 unpack f;
#X obj 398 452 unpack f;
#X obj 251 354 route Lyre /kof/spheremode;
#X obj 327 394 == 0;
#X obj 407 395 tgl 15 0 empty empty empty 17 7 0 10 -262144 -1 -1 0
1;
#X obj 251 396 spigot 1;
#X connect 2 0 32 0;
#X connect 6 0 5 0;
#X connect 7 0 6 0;
#X connect 8 0 3 0;
#X connect 10 0 30 0;
#X connect 10 3 9 0;
#X connect 10 3 31 0;
#X connect 11 0 15 0;
#X connect 12 0 5 0;
#X connect 13 0 12 0;
#X connect 15 0 14 0;
#X connect 15 0 17 0;
#X connect 16 0 3 0;
#X connect 17 0 16 0;
#X connect 18 0 19 0;
#X connect 19 0 5 0;
#X connect 20 0 23 1;
#X connect 21 0 23 0;
#X connect 22 0 24 0;
#X connect 23 0 28 0;
#X connect 24 0 21 0;
#X connect 25 0 29 0;
#X connect 25 0 4 0;
#X connect 25 0 26 0;
#X connect 27 0 23 1;
#X connect 28 0 25 0;
#X connect 29 0 25 1;
#X connect 30 0 20 0;
#X connect 31 0 15 0;
#X connect 32 0 35 0;
#X connect 32 1 33 0;
#X connect 33 0 34 0;
#X connect 35 0 10 0;
