#N canvas 669 147 734 606 10;
#X obj 83 -2 pofhead;
#X obj 83 20 t a a;
#X obj 83 42 s /pofhead/slave;
#X obj 131 152 pofrotate x;
#X floatatom 206 32 5 0 0 0 - - -, f 5;
#X floatatom 208 135 5 0 0 0 - - -, f 5;
#X obj 147 72 r /slave_quad/base_rot/pitch;
#X obj 152 93 r /slave_quad/base_rot/yaw;
#X obj 361 27 ds_reg \$2 /kof/\$1/pitch;
#X obj 530 27 osc_bi \$2 /kof/\$1/pitch;
#X obj 361 47 ds_reg \$2 /kof/\$1/yaw;
#X obj 530 47 osc_bi \$2 /kof/\$1/yaw;
#X obj 115 389 kof_sphere SPHERE \$1;
#X obj 447 256 ds_logic \$1;
#X obj 337 310 ds_gui \$1;
#X msg 535 101 1;
#X obj 460 180 pipe 500;
#X msg 460 202 \; /ds/\$1/recall 0;
#X obj 583 227 t f f;
#X msg 650 204 1;
#X obj 583 289 pipe 500;
#X obj 583 175 r /save;
#X msg 616 247 \; /ds/\$1/store;
#X obj 460 118 t f f f;
#X obj 583 197 f \$1;
#X msg 583 311 \; /ds/\$1/resave bang;
#X obj 509 361 bng 25 250 50 0 /save empty SAVE 28 12 0 10 -262144
-1 -1;
#X obj 114 544 kof_media QUAD\$1 \$1;
#X obj 460 99 pipe 2000;
#X obj 460 77 r /init/delayed;
#X obj 229 318 vsl 15 60 -50 90 0 0 /kof/\$1/pitch /kof/\$1/pitch pitch
-10 -9 0 10 -262144 -1 -1 5900 0;
#X obj 275 318 vsl 15 60 -180 180 0 0 /kof/\$1/yaw /kof/\$1/yaw yaw
-10 -9 0 10 -262144 -1 -1 0 0;
#X text 162 333 base;
#X text 157 351 rotation;
#X obj 251 341 bng 15 250 50 0 empty empty empty 17 7 0 10 -262144
-1 -1;
#X msg 252 262 0;
#X msg 493 138 \; /ds/\$1/loadfile ../presets/screen\$1;
#X obj 332 442 kof_win 0 \$1;
#X obj 216 192 oscparse;
#X obj 346 227 s /osc/\$1/in;
#X obj 131 174 pofrotate y;
#X obj 335 83 r /init/delayed;
#X msg 335 103 1;
#X obj 296 204 route /\$1;
#X obj 261 226 print;
#X obj 296 256 s /osc/0/in;
#X obj 334 123 ../PdClient NET E1;
#X obj 296 181 r NET-fromserver;
#X connect 0 0 1 0;
#X connect 1 0 2 0;
#X connect 1 1 12 0;
#X connect 3 0 40 0;
#X connect 4 0 3 1;
#X connect 5 0 40 1;
#X connect 6 0 3 1;
#X connect 7 0 40 1;
#X connect 15 0 23 0;
#X connect 16 0 17 0;
#X connect 18 0 20 0;
#X connect 18 1 22 0;
#X connect 19 0 18 0;
#X connect 20 0 25 0;
#X connect 21 0 24 0;
#X connect 23 0 16 0;
#X connect 23 1 36 0;
#X connect 24 0 18 0;
#X connect 28 0 23 0;
#X connect 29 0 28 0;
#X connect 34 0 35 0;
#X connect 35 0 30 0;
#X connect 35 0 31 0;
#X connect 41 0 42 0;
#X connect 42 0 46 0;
#X connect 43 0 45 0;
#X connect 43 1 39 0;
#X connect 47 0 43 0;
#X coords 0 -1 1 1 500 300 1 100 300;
