#N canvas 268 425 558 446 10;
#X declare -lib pof;
#X declare -path ../kollabs;
#X obj 16 88 s pd-slave_quad_pool;
#N canvas 596 665 545 371 slave_quad_pool 0;
#X obj 20 20 slave_quad 1;
#X coords 0 -1 1 1 520 320 2 10 10;
#X restore 16 107 pd slave_quad_pool;
#X obj 16 -26 r /init;
#X msg 178 40 clear;
#X obj 302 26 declare -lib pof;
#X obj 474 21 loadbang;
#X msg 474 43 \; pd dsp 1;
#X msg 16 66 clear \, obj 20 20 slave_quad \$1;
#X obj 16 -4 t f f;
#X obj 47 17 pipe 1000;
#X obj 47 39 s /init/delayed;
#X obj 179 16 loadbang;
#X obj 301 46 declare -path ../kollabs;
#X connect 2 0 8 0;
#X connect 3 0 0 0;
#X connect 5 0 6 0;
#X connect 7 0 0 0;
#X connect 8 0 7 0;
#X connect 8 1 9 0;
#X connect 9 0 10 0;
#X connect 11 0 3 0;
