#N canvas 97 378 1155 606 10;
#X declare -path ../kollabs -lib pof;
#X obj 83 -22 pofhead;
#X obj 106 22 s /pofhead/slave;
#X obj 131 152 pofrotate x;
#X floatatom 206 32 5 0 0 0 - - -, f 5;
#X floatatom 208 135 5 0 0 0 - - -, f 5;
#X obj 147 72 r /slave_quad/base_rot/pitch;
#X obj 152 93 r /slave_quad/base_rot/yaw;
#X obj 276 18 ds_reg \$2 /kof/\$1/pitch;
#X obj 445 18 osc_bi \$2 /kof/\$1/pitch;
#X obj 276 38 ds_reg \$2 /kof/\$1/yaw;
#X obj 445 38 osc_bi \$2 /kof/\$1/yaw;
#X obj 433 310 ds_gui \$1;
#X msg 460 244 \; /ds/\$1/recall 0;
#X msg 723 85 1;
#X obj 773 60 r /save;
#X msg 749 192 \; /ds/\$1/resave bang;
#X obj 376 477 bng 25 250 50 0 /save empty SAVE 0 -8 0 10 -262144 -1
-1;
#X obj 460 60 r /init/delayed;
#X obj 328 371 vsl 15 60 -50 90 0 0 /kof/\$1/pitch /kof/\$1/pitch pitch
-10 -9 0 10 -262144 -1 -1 0 0;
#X obj 374 371 vsl 15 60 -180 180 0 0 /kof/\$1/yaw /kof/\$1/yaw yaw
-10 -9 0 10 -262144 -1 -1 0 0;
#X text 332 320 base;
#X text 327 338 rotation;
#X obj 378 279 bng 15 250 50 0 empty empty empty 17 7 0 10 -262144
-1 -1;
#X msg 354 278 0;
#X obj 131 174 pofrotate y;
#X obj 335 83 r /init/delayed;
#X msg 335 103 1;
#X obj 296 204 route /\$1;
#X obj 296 256 s /osc/0/in;
#X obj 335 129 ../PdClient NET E1;
#X obj 296 181 r NET-fromserver;
#X obj 16 124 r NET-fromserver;
#X obj 711 343 r NET-fromserver;
#X text 825 350 reception changement de scene;
#X text 843 421 ajout domaine 0 + passage quad et sphere;
#X text 954 435 a domaine 0;
#X obj 16 164 print fromserver;
#X obj 664 390 print;
#X obj 837 262 r /init/delayed;
#X obj 953 228 r /reloadfile;
#X msg 837 284 \; /ds/0/loadfile ../presets/preset-test;
#X msg 953 249 \; /ds/0/reload bang;
#X text 896 206 (re)chargement fichier preset;
#X obj 346 227 s /osc/0/in;
#X obj 83 0 t a a a;
#X obj 86 42 s /pofhead/mask;
#X obj 613 314 ds_logic \$1;
#X obj 146 247 r /pofhead/mask;
#X obj 739 19 declare -path ../kollabs -lib pof;
#X msg 479 168 \; /ds/\$1/loadfile ../presets/screen\$1;
#X obj 709 411 s /ds/0/scene/current;
#X obj 711 388 s /ds/0/scene;
#X obj 955 140 s /init/delayed;
#X obj 955 84 bng 15 250 50 0 empty empty empty 17 7 0 10 -262144 -1
-1;
#X obj 955 40 loadbang;
#X obj 955 60 del 2000;
#X obj 710 366 route /loadpreset /reloadfile;
#X msg 847 394 \; /ds/0/reload bang;
#X obj 114 544 kof_media QUAD\$1 0;
#X obj 661 440 ds_logic 0;
#X obj 661 460 ds_gui 0;
#X obj 821 440 ds_transition 0;
#X obj 821 460 ds_transition_gui 0;
#X obj 411 439 kof_win 0 \$1;
#X obj 241 220 print;
#X obj 114 324 kof_quadmask MASK\$1;
#X obj 800 107 list prepend \$1;
#X obj 955 107 list prepend \$1;
#X obj 115 389 kof_sphere SPHERE 0 \$1;
#X obj 399 267 print;
#X obj 479 146 list prepend \$1;
#X obj 460 102 del 2000;
#X obj 460 81 b;
#X obj 773 85 t b b;
#X obj 749 130 del 500;
#X obj 749 168 list prepend \$1;
#X obj 844 69 bng 15 250 50 0 empty empty empty 17 7 0 10 -262144 -1
-1;
#X msg 800 128 \; /ds/\$1/store 0;
#X obj 460 124 t b b b;
#X obj 460 203 del 500;
#X obj 460 224 list prepend \$1;
#X connect 0 0 44 0;
#X connect 2 0 24 0;
#X connect 3 0 2 1;
#X connect 4 0 24 1;
#X connect 5 0 2 1;
#X connect 6 0 24 1;
#X connect 13 0 73 0;
#X connect 14 0 73 0;
#X connect 17 0 72 0;
#X connect 22 0 23 0;
#X connect 25 0 26 0;
#X connect 27 0 28 0;
#X connect 27 1 43 0;
#X connect 30 0 27 0;
#X connect 32 0 56 0;
#X connect 38 0 40 0;
#X connect 39 0 41 0;
#X connect 44 0 45 0;
#X connect 44 1 1 0;
#X connect 44 2 68 0;
#X connect 47 0 65 0;
#X connect 53 0 67 0;
#X connect 54 0 55 0;
#X connect 55 0 53 0;
#X connect 56 0 51 0;
#X connect 56 1 57 0;
#X connect 66 0 77 0;
#X connect 67 0 52 0;
#X connect 70 0 49 0;
#X connect 71 0 78 0;
#X connect 72 0 71 0;
#X connect 73 0 74 0;
#X connect 73 1 66 0;
#X connect 74 0 75 0;
#X connect 75 0 15 0;
#X connect 76 0 66 0;
#X connect 78 0 79 0;
#X connect 78 1 70 0;
#X connect 79 0 80 0;
#X connect 80 0 12 0;
#X coords 0 -1 1 1 500 300 1 100 300;
