#N canvas 4 75 613 499 10;
#X obj 209 79 r NET-fromserver;
#X obj 356 303 s /kof/PI/pitch;
#X obj 111 247 s /kof/PI/yaw;
#X obj 209 109 route Lyre /kof/PI/pitch;
#X floatatom 420 167 5 0 0 0 - - -, f 5;
#X floatatom 268 172 5 0 0 0 - - -, f 5;
#X obj 210 135 route X Y setX setY;
#X floatatom 364 190 5 0 0 0 - - -, f 5;
#X floatatom 293 263 5 0 0 0 - - -, f 5;
#X obj 356 223 motorlimit2 0.05 0.005 0.08 0.04;
#X obj 356 269 * 180;
#X obj 356 246 - 0.5;
#X obj 210 193 * -1;
#X obj 111 156 metro 20;
#X obj 111 115 loadbang;
#X obj 111 183 f;
#X obj 111 136 tgl 15 0 empty empty empty 17 7 0 10 -262144 -1 -1 0
1;
#X obj 111 223 +;
#X floatatom 57 260 5 0 0 0 - - -, f 5;
#X floatatom 68 146 5 0 0 0 - - -, f 5;
#X obj 111 202 * 0.02;
#X obj 138 222 * 0.98;
#X obj 210 164 unpack f;
#X obj 320 160 unpack f;
#X connect 0 0 3 0;
#X connect 3 0 6 0;
#X connect 4 0 1 0;
#X connect 6 0 22 0;
#X connect 6 3 5 0;
#X connect 6 3 23 0;
#X connect 7 0 9 0;
#X connect 9 0 8 0;
#X connect 9 0 11 0;
#X connect 10 0 1 0;
#X connect 11 0 10 0;
#X connect 12 0 15 1;
#X connect 13 0 15 0;
#X connect 14 0 16 0;
#X connect 15 0 20 0;
#X connect 16 0 13 0;
#X connect 17 0 21 0;
#X connect 17 0 2 0;
#X connect 17 0 18 0;
#X connect 19 0 15 1;
#X connect 20 0 17 0;
#X connect 21 0 17 1;
#X connect 22 0 12 0;
#X connect 23 0 9 0;
